<?xml version="1.0" encoding="UTF-8" standalone="no"?>
<!DOCTYPE svg PUBLIC "-//W3C//DTD SVG 1.1//EN"
 "http://www.w3.org/Graphics/SVG/1.1/DTD/svg11.dtd">
<!-- Generated by graphviz version 5.0.0 (20220707.1540)
 -->
<!-- Title: dependencies Pages: 1 -->
<svg width="1159pt" height="174pt"
 viewBox="0.00 0.00 1159.00 173.80" xmlns="http://www.w3.org/2000/svg" xmlns:xlink="http://www.w3.org/1999/xlink">
<g id="graph0" class="graph" transform="scale(1 1) rotate(0) translate(4 169.8)">
<title>dependencies</title>
<polygon fill="white" stroke="transparent" points="-4,4 -4,-169.8 1155,-169.8 1155,4 -4,4"/>
<text text-anchor="middle" x="575.5" y="-8.2" font-family="sans-serif" font-size="14.00">dependencies</text>
<g id="clust1" class="cluster">
<title>cluster_DictionariesModule</title>
<polygon fill="none" stroke="black" stroke-dasharray="1,5" points="8,-32.8 8,-157.8 1143,-157.8 1143,-32.8 8,-32.8"/>
</g>
<g id="clust2" class="cluster">
<title>cluster_DictionariesModule_declarations</title>
<polygon fill="none" stroke="black" points="214,-40.8 214,-92.8 1135,-92.8 1135,-40.8 214,-40.8"/>
</g>
<g id="clust8" class="cluster">
<title>cluster_DictionariesModule_imports</title>
<polygon fill="none" stroke="black" points="16,-40.8 16,-92.8 206,-92.8 206,-40.8 16,-40.8"/>
</g>
<!-- ClientComponent -->
<g id="node1" class="node">
<title>ClientComponent</title>
<polygon fill="#ffffb3" stroke="black" points="1126.55,-84.8 1011.45,-84.8 1011.45,-48.8 1126.55,-48.8 1126.55,-84.8"/>
<text text-anchor="middle" x="1069" y="-62.6" font-family="Times,serif" font-size="14.00">ClientComponent</text>
</g>
<!-- DictionariesModule -->
<g id="node6" class="node">
<title>DictionariesModule</title>
<polygon fill="#8dd3c7" stroke="black" points="716.97,-149.8 713.97,-153.8 692.97,-153.8 689.97,-149.8 589.03,-149.8 589.03,-113.8 716.97,-113.8 716.97,-149.8"/>
<text text-anchor="middle" x="653" y="-127.6" font-family="Times,serif" font-size="14.00">DictionariesModule</text>
</g>
<!-- ClientComponent&#45;&gt;DictionariesModule -->
<g id="edge1" class="edge">
<title>ClientComponent&#45;&gt;DictionariesModule</title>
<path fill="none" stroke="black" d="M1069,-85.08C1069,-106.12 1069,-137.8 1069,-137.8 1069,-137.8 727.09,-137.8 727.09,-137.8"/>
<polygon fill="black" stroke="black" points="727.09,-134.3 717.09,-137.8 727.09,-141.3 727.09,-134.3"/>
</g>
<!-- ClientFormComponent -->
<g id="node2" class="node">
<title>ClientFormComponent</title>
<polygon fill="#ffffb3" stroke="black" points="992.89,-84.8 847.11,-84.8 847.11,-48.8 992.89,-48.8 992.89,-84.8"/>
<text text-anchor="middle" x="920" y="-62.6" font-family="Times,serif" font-size="14.00">ClientFormComponent</text>
</g>
<!-- ClientFormComponent&#45;&gt;DictionariesModule -->
<g id="edge2" class="edge">
<title>ClientFormComponent&#45;&gt;DictionariesModule</title>
<path fill="none" stroke="black" d="M920,-84.82C920,-102.17 920,-125.8 920,-125.8 920,-125.8 727.29,-125.8 727.29,-125.8"/>
<polygon fill="black" stroke="black" points="727.29,-122.3 717.29,-125.8 727.29,-129.3 727.29,-122.3"/>
</g>
<!-- EstimateTypeComponent -->
<g id="node3" class="node">
<title>EstimateTypeComponent</title>
<polygon fill="#ffffb3" stroke="black" points="829.58,-84.8 670.42,-84.8 670.42,-48.8 829.58,-48.8 829.58,-84.8"/>
<text text-anchor="middle" x="750" y="-62.6" font-family="Times,serif" font-size="14.00">EstimateTypeComponent</text>
</g>
<!-- EstimateTypeComponent&#45;&gt;DictionariesModule -->
<g id="edge3" class="edge">
<title>EstimateTypeComponent&#45;&gt;DictionariesModule</title>
<path fill="none" stroke="black" d="M693.72,-84.91C693.72,-84.91 693.72,-103.79 693.72,-103.79"/>
<polygon fill="black" stroke="black" points="690.22,-103.79 693.72,-113.79 697.22,-103.79 690.22,-103.79"/>
</g>
<!-- ProductTradeNameComponent -->
<g id="node4" class="node">
<title>ProductTradeNameComponent</title>
<polygon fill="#ffffb3" stroke="black" points="652.45,-84.8 461.55,-84.8 461.55,-48.8 652.45,-48.8 652.45,-84.8"/>
<text text-anchor="middle" x="557" y="-62.6" font-family="Times,serif" font-size="14.00">ProductTradeNameComponent</text>
</g>
<!-- ProductTradeNameComponent&#45;&gt;DictionariesModule -->
<g id="edge4" class="edge">
<title>ProductTradeNameComponent&#45;&gt;DictionariesModule</title>
<path fill="none" stroke="black" d="M620.74,-84.91C620.74,-84.91 620.74,-103.79 620.74,-103.79"/>
<polygon fill="black" stroke="black" points="617.24,-103.79 620.74,-113.79 624.24,-103.79 617.24,-103.79"/>
</g>
<!-- ProductTradeNameFormComponent -->
<g id="node5" class="node">
<title>ProductTradeNameFormComponent</title>
<polygon fill="#ffffb3" stroke="black" points="443.79,-84.8 222.21,-84.8 222.21,-48.8 443.79,-48.8 443.79,-84.8"/>
<text text-anchor="middle" x="333" y="-62.6" font-family="Times,serif" font-size="14.00">ProductTradeNameFormComponent</text>
</g>
<!-- ProductTradeNameFormComponent&#45;&gt;DictionariesModule -->
<g id="edge5" class="edge">
<title>ProductTradeNameFormComponent&#45;&gt;DictionariesModule</title>
<path fill="none" stroke="black" d="M333,-84.82C333,-102.17 333,-125.8 333,-125.8 333,-125.8 579.01,-125.8 579.01,-125.8"/>
<polygon fill="black" stroke="black" points="579.01,-129.3 589.01,-125.8 579.01,-122.3 579.01,-129.3"/>
</g>
<!-- DictionariesRoutingModule -->
<g id="node7" class="node">
<title>DictionariesRoutingModule</title>
<polygon fill="#8dd3c7" stroke="black" points="197.59,-84.8 194.59,-88.8 173.59,-88.8 170.59,-84.8 24.41,-84.8 24.41,-48.8 197.59,-48.8 197.59,-84.8"/>
<text text-anchor="middle" x="111" y="-62.6" font-family="Times,serif" font-size="14.00">DictionariesRoutingModule</text>
</g>
<!-- DictionariesRoutingModule&#45;&gt;DictionariesModule -->
<g id="edge6" class="edge">
<title>DictionariesRoutingModule&#45;&gt;DictionariesModule</title>
<path fill="none" stroke="black" d="M111,-85.08C111,-106.12 111,-137.8 111,-137.8 111,-137.8 578.96,-137.8 578.96,-137.8"/>
<polygon fill="black" stroke="black" points="578.96,-141.3 588.96,-137.8 578.96,-134.3 578.96,-141.3"/>
</g>
</g>
</svg>
