<?xml version="1.0" encoding="UTF-8" standalone="no"?>
<!DOCTYPE svg PUBLIC "-//W3C//DTD SVG 1.1//EN"
 "http://www.w3.org/Graphics/SVG/1.1/DTD/svg11.dtd">
<!-- Generated by graphviz version 5.0.0 (20220707.1540)
 -->
<!-- Title: dependencies Pages: 1 -->
<svg width="1009pt" height="174pt"
 viewBox="0.00 0.00 1009.00 173.80" xmlns="http://www.w3.org/2000/svg" xmlns:xlink="http://www.w3.org/1999/xlink">
<g id="graph0" class="graph" transform="scale(1 1) rotate(0) translate(4 169.8)">
<title>dependencies</title>
<polygon fill="white" stroke="transparent" points="-4,4 -4,-169.8 1005,-169.8 1005,4 -4,4"/>
<text text-anchor="middle" x="500.5" y="-8.2" font-family="sans-serif" font-size="14.00">dependencies</text>
<g id="clust1" class="cluster">
<title>cluster_AdminModule</title>
<polygon fill="none" stroke="black" stroke-dasharray="1,5" points="8,-32.8 8,-157.8 993,-157.8 993,-32.8 8,-32.8"/>
</g>
<g id="clust8" class="cluster">
<title>cluster_AdminModule_imports</title>
<polygon fill="none" stroke="black" points="825,-40.8 825,-92.8 985,-92.8 985,-40.8 825,-40.8"/>
</g>
<g id="clust2" class="cluster">
<title>cluster_AdminModule_declarations</title>
<polygon fill="none" stroke="black" points="16,-40.8 16,-92.8 817,-92.8 817,-40.8 16,-40.8"/>
</g>
<!-- UserDepartmentComponent -->
<g id="node1" class="node">
<title>UserDepartmentComponent</title>
<polygon fill="#ffffb3" stroke="black" points="808.85,-84.8 635.15,-84.8 635.15,-48.8 808.85,-48.8 808.85,-84.8"/>
<text text-anchor="middle" x="722" y="-62.6" font-family="Times,serif" font-size="14.00">UserDepartmentComponent</text>
</g>
<!-- AdminModule -->
<g id="node6" class="node">
<title>AdminModule</title>
<polygon fill="#8dd3c7" stroke="black" points="517.44,-149.8 514.44,-153.8 493.44,-153.8 490.44,-149.8 418.56,-149.8 418.56,-113.8 517.44,-113.8 517.44,-149.8"/>
<text text-anchor="middle" x="468" y="-127.6" font-family="Times,serif" font-size="14.00">AdminModule</text>
</g>
<!-- UserDepartmentComponent&#45;&gt;AdminModule -->
<g id="edge1" class="edge">
<title>UserDepartmentComponent&#45;&gt;AdminModule</title>
<path fill="none" stroke="black" d="M722,-84.82C722,-102.17 722,-125.8 722,-125.8 722,-125.8 527.27,-125.8 527.27,-125.8"/>
<polygon fill="black" stroke="black" points="527.27,-122.3 517.27,-125.8 527.27,-129.3 527.27,-122.3"/>
</g>
<!-- UserFormComponent -->
<g id="node2" class="node">
<title>UserFormComponent</title>
<polygon fill="#ffffb3" stroke="black" points="617.1,-84.8 478.9,-84.8 478.9,-48.8 617.1,-48.8 617.1,-84.8"/>
<text text-anchor="middle" x="548" y="-62.6" font-family="Times,serif" font-size="14.00">UserFormComponent</text>
</g>
<!-- UserFormComponent&#45;&gt;AdminModule -->
<g id="edge2" class="edge">
<title>UserFormComponent&#45;&gt;AdminModule</title>
<path fill="none" stroke="black" d="M498.08,-84.91C498.08,-84.91 498.08,-103.79 498.08,-103.79"/>
<polygon fill="black" stroke="black" points="494.58,-103.79 498.08,-113.79 501.58,-103.79 494.58,-103.79"/>
</g>
<!-- UserGroupComponent -->
<g id="node3" class="node">
<title>UserGroupComponent</title>
<polygon fill="#ffffb3" stroke="black" points="460.54,-84.8 317.46,-84.8 317.46,-48.8 460.54,-48.8 460.54,-84.8"/>
<text text-anchor="middle" x="389" y="-62.6" font-family="Times,serif" font-size="14.00">UserGroupComponent</text>
</g>
<!-- UserGroupComponent&#45;&gt;AdminModule -->
<g id="edge3" class="edge">
<title>UserGroupComponent&#45;&gt;AdminModule</title>
<path fill="none" stroke="black" d="M439.77,-84.91C439.77,-84.91 439.77,-103.79 439.77,-103.79"/>
<polygon fill="black" stroke="black" points="436.27,-103.79 439.77,-113.79 443.27,-103.79 436.27,-103.79"/>
</g>
<!-- UserParamComponent -->
<g id="node4" class="node">
<title>UserParamComponent</title>
<polygon fill="#ffffb3" stroke="black" points="298.53,-84.8 155.47,-84.8 155.47,-48.8 298.53,-48.8 298.53,-84.8"/>
<text text-anchor="middle" x="227" y="-62.6" font-family="Times,serif" font-size="14.00">UserParamComponent</text>
</g>
<!-- UserParamComponent&#45;&gt;AdminModule -->
<g id="edge4" class="edge">
<title>UserParamComponent&#45;&gt;AdminModule</title>
<path fill="none" stroke="black" d="M227,-84.82C227,-102.17 227,-125.8 227,-125.8 227,-125.8 408.65,-125.8 408.65,-125.8"/>
<polygon fill="black" stroke="black" points="408.65,-129.3 418.65,-125.8 408.65,-122.3 408.65,-129.3"/>
</g>
<!-- UsersComponent -->
<g id="node5" class="node">
<title>UsersComponent</title>
<polygon fill="#ffffb3" stroke="black" points="137.71,-84.8 24.29,-84.8 24.29,-48.8 137.71,-48.8 137.71,-84.8"/>
<text text-anchor="middle" x="81" y="-62.6" font-family="Times,serif" font-size="14.00">UsersComponent</text>
</g>
<!-- UsersComponent&#45;&gt;AdminModule -->
<g id="edge5" class="edge">
<title>UsersComponent&#45;&gt;AdminModule</title>
<path fill="none" stroke="black" d="M81,-85.08C81,-106.12 81,-137.8 81,-137.8 81,-137.8 408.59,-137.8 408.59,-137.8"/>
<polygon fill="black" stroke="black" points="408.59,-141.3 418.59,-137.8 408.59,-134.3 408.59,-141.3"/>
</g>
<!-- AdminRoutingModule -->
<g id="node7" class="node">
<title>AdminRoutingModule</title>
<polygon fill="#8dd3c7" stroke="black" points="976.56,-84.8 973.56,-88.8 952.56,-88.8 949.56,-84.8 833.44,-84.8 833.44,-48.8 976.56,-48.8 976.56,-84.8"/>
<text text-anchor="middle" x="905" y="-62.6" font-family="Times,serif" font-size="14.00">AdminRoutingModule</text>
</g>
<!-- AdminRoutingModule&#45;&gt;AdminModule -->
<g id="edge6" class="edge">
<title>AdminRoutingModule&#45;&gt;AdminModule</title>
<path fill="none" stroke="black" d="M905,-85.08C905,-106.12 905,-137.8 905,-137.8 905,-137.8 527.28,-137.8 527.28,-137.8"/>
<polygon fill="black" stroke="black" points="527.28,-134.3 517.28,-137.8 527.28,-141.3 527.28,-134.3"/>
</g>
</g>
</svg>
