<?xml version="1.0" encoding="UTF-8" standalone="no"?>
<!DOCTYPE svg PUBLIC "-//W3C//DTD SVG 1.1//EN"
 "http://www.w3.org/Graphics/SVG/1.1/DTD/svg11.dtd">
<!-- Generated by graphviz version 5.0.0 (20220707.1540)
 -->
<!-- Title: dependencies Pages: 1 -->
<svg width="1378pt" height="247pt"
 viewBox="0.00 0.00 1378.00 246.80" xmlns="http://www.w3.org/2000/svg" xmlns:xlink="http://www.w3.org/1999/xlink">
<g id="graph0" class="graph" transform="scale(1 1) rotate(0) translate(4 242.8)">
<title>dependencies</title>
<polygon fill="white" stroke="transparent" points="-4,4 -4,-242.8 1374,-242.8 1374,4 -4,4"/>
<text text-anchor="middle" x="685" y="-8.2" font-family="sans-serif" font-size="14.00">dependencies</text>
<g id="clust1" class="cluster">
<title>cluster_UniversalComponentsModule</title>
<polygon fill="none" stroke="black" stroke-dasharray="1,5" points="8,-32.8 8,-230.8 1362,-230.8 1362,-32.8 8,-32.8"/>
</g>
<g id="clust2" class="cluster">
<title>cluster_UniversalComponentsModule_declarations</title>
<polygon fill="none" stroke="black" points="216,-40.8 216,-92.8 1354,-92.8 1354,-40.8 216,-40.8"/>
</g>
<g id="clust10" class="cluster">
<title>cluster_UniversalComponentsModule_exports</title>
<polygon fill="none" stroke="black" points="435,-170.8 435,-222.8 874,-222.8 874,-170.8 435,-170.8"/>
</g>
<g id="clust12" class="cluster">
<title>cluster_UniversalComponentsModule_providers</title>
<polygon fill="none" stroke="black" points="16,-40.8 16,-92.8 208,-92.8 208,-40.8 16,-40.8"/>
</g>
<!-- FormComponent -->
<g id="node1" class="node">
<title>FormComponent</title>
<polygon fill="#ffffb3" stroke="black" points="1345.67,-84.8 1234.33,-84.8 1234.33,-48.8 1345.67,-48.8 1345.67,-84.8"/>
<text text-anchor="middle" x="1290" y="-62.6" font-family="Times,serif" font-size="14.00">FormComponent</text>
</g>
<!-- UniversalComponentsModule -->
<g id="node7" class="node">
<title>UniversalComponentsModule</title>
<polygon fill="#8dd3c7" stroke="black" points="747.26,-149.8 744.26,-153.8 723.26,-153.8 720.26,-149.8 562.74,-149.8 562.74,-113.8 747.26,-113.8 747.26,-149.8"/>
<text text-anchor="middle" x="655" y="-127.6" font-family="Times,serif" font-size="14.00">UniversalComponentsModule</text>
</g>
<!-- FormComponent&#45;&gt;UniversalComponentsModule -->
<g id="edge1" class="edge">
<title>FormComponent&#45;&gt;UniversalComponentsModule</title>
<path fill="none" stroke="black" d="M1290,-85.08C1290,-106.12 1290,-137.8 1290,-137.8 1290,-137.8 757.33,-137.8 757.33,-137.8"/>
<polygon fill="black" stroke="black" points="757.33,-134.3 747.33,-137.8 757.33,-141.3 757.33,-134.3"/>
</g>
<!-- FormDictionaryValueDialogComponent -->
<g id="node2" class="node">
<title>FormDictionaryValueDialogComponent</title>
<polygon fill="#ffffb3" stroke="black" points="1216.57,-84.8 973.43,-84.8 973.43,-48.8 1216.57,-48.8 1216.57,-84.8"/>
<text text-anchor="middle" x="1095" y="-62.6" font-family="Times,serif" font-size="14.00">FormDictionaryValueDialogComponent</text>
</g>
<!-- FormDictionaryValueDialogComponent&#45;&gt;UniversalComponentsModule -->
<g id="edge2" class="edge">
<title>FormDictionaryValueDialogComponent&#45;&gt;UniversalComponentsModule</title>
<path fill="none" stroke="black" d="M1095,-84.82C1095,-102.17 1095,-125.8 1095,-125.8 1095,-125.8 757.51,-125.8 757.51,-125.8"/>
<polygon fill="black" stroke="black" points="757.51,-122.3 747.51,-125.8 757.51,-129.3 757.51,-122.3"/>
</g>
<!-- FormTableSetColumnComponent -->
<g id="node3" class="node">
<title>FormTableSetColumnComponent</title>
<polygon fill="#ffffb3" stroke="black" points="955.05,-84.8 748.95,-84.8 748.95,-48.8 955.05,-48.8 955.05,-84.8"/>
<text text-anchor="middle" x="852" y="-62.6" font-family="Times,serif" font-size="14.00">FormTableSetColumnComponent</text>
</g>
<!-- FormTableSetColumnComponent&#45;&gt;UniversalComponentsModule -->
<g id="edge3" class="edge">
<title>FormTableSetColumnComponent&#45;&gt;UniversalComponentsModule</title>
<path fill="none" stroke="black" d="M748.65,-66.8C742.67,-66.8 739.02,-66.8 739.02,-66.8 739.02,-66.8 739.02,-103.69 739.02,-103.69"/>
<polygon fill="black" stroke="black" points="735.52,-103.69 739.02,-113.69 742.52,-103.69 735.52,-103.69"/>
</g>
<!-- TableButtonComponent -->
<g id="node4" class="node">
<title>TableButtonComponent</title>
<polygon fill="#ffffb3" stroke="black" points="730.82,-84.8 579.18,-84.8 579.18,-48.8 730.82,-48.8 730.82,-84.8"/>
<text text-anchor="middle" x="655" y="-62.6" font-family="Times,serif" font-size="14.00">TableButtonComponent</text>
</g>
<!-- TableButtonComponent&#45;&gt;UniversalComponentsModule -->
<g id="edge4" class="edge">
<title>TableButtonComponent&#45;&gt;UniversalComponentsModule</title>
<path fill="none" stroke="black" d="M655,-84.91C655,-84.91 655,-103.79 655,-103.79"/>
<polygon fill="black" stroke="black" points="651.5,-103.79 655,-113.79 658.5,-103.79 651.5,-103.79"/>
</g>
<!-- TableComponent -->
<g id="node5" class="node">
<title>TableComponent</title>
<polygon fill="#ffffb3" stroke="black" points="561.7,-84.8 448.3,-84.8 448.3,-48.8 561.7,-48.8 561.7,-84.8"/>
<text text-anchor="middle" x="505" y="-62.6" font-family="Times,serif" font-size="14.00">TableComponent</text>
</g>
<!-- TableComponent&#45;&gt;UniversalComponentsModule -->
<g id="edge5" class="edge">
<title>TableComponent&#45;&gt;UniversalComponentsModule</title>
<path fill="none" stroke="black" d="M561.81,-66.8C567.36,-66.8 570.98,-66.8 570.98,-66.8 570.98,-66.8 570.98,-103.69 570.98,-103.69"/>
<polygon fill="black" stroke="black" points="567.48,-103.69 570.98,-113.69 574.48,-103.69 567.48,-103.69"/>
</g>
<!-- UniversalComponentsComponent -->
<g id="node6" class="node">
<title>UniversalComponentsComponent</title>
<polygon fill="#ffffb3" stroke="black" points="430.04,-84.8 223.96,-84.8 223.96,-48.8 430.04,-48.8 430.04,-84.8"/>
<text text-anchor="middle" x="327" y="-62.6" font-family="Times,serif" font-size="14.00">UniversalComponentsComponent</text>
</g>
<!-- UniversalComponentsComponent&#45;&gt;UniversalComponentsModule -->
<g id="edge6" class="edge">
<title>UniversalComponentsComponent&#45;&gt;UniversalComponentsModule</title>
<path fill="none" stroke="black" d="M327,-84.82C327,-102.17 327,-125.8 327,-125.8 327,-125.8 552.32,-125.8 552.32,-125.8"/>
<polygon fill="black" stroke="black" points="552.32,-129.3 562.32,-125.8 552.32,-122.3 552.32,-129.3"/>
</g>
<!-- FormComponent  -->
<g id="node8" class="node">
<title>FormComponent </title>
<polygon fill="#fb8072" stroke="black" points="865.67,-214.8 750.33,-214.8 750.33,-178.8 865.67,-178.8 865.67,-214.8"/>
<text text-anchor="middle" x="808" y="-192.6" font-family="Times,serif" font-size="14.00">FormComponent </text>
</g>
<!-- UniversalComponentsModule&#45;&gt;FormComponent  -->
<g id="edge7" class="edge">
<title>UniversalComponentsModule&#45;&gt;FormComponent </title>
<path fill="none" stroke="black" stroke-dasharray="5,2" d="M739.89,-149.91C739.89,-169.14 739.89,-196.8 739.89,-196.8 739.89,-196.8 740.93,-196.8 740.93,-196.8"/>
<polygon fill="black" stroke="black" points="740.24,-200.3 750.24,-196.8 740.24,-193.3 740.24,-200.3"/>
</g>
<!-- TableButtonComponent  -->
<g id="node9" class="node">
<title>TableButtonComponent </title>
<polygon fill="#fb8072" stroke="black" points="732.32,-214.8 577.68,-214.8 577.68,-178.8 732.32,-178.8 732.32,-214.8"/>
<text text-anchor="middle" x="655" y="-192.6" font-family="Times,serif" font-size="14.00">TableButtonComponent </text>
</g>
<!-- UniversalComponentsModule&#45;&gt;TableButtonComponent  -->
<g id="edge8" class="edge">
<title>UniversalComponentsModule&#45;&gt;TableButtonComponent </title>
<path fill="none" stroke="black" stroke-dasharray="5,2" d="M655,-149.91C655,-149.91 655,-168.79 655,-168.79"/>
<polygon fill="black" stroke="black" points="651.5,-168.79 655,-178.79 658.5,-168.79 651.5,-168.79"/>
</g>
<!-- TableComponent  -->
<g id="node10" class="node">
<title>TableComponent </title>
<polygon fill="#fb8072" stroke="black" points="559.2,-214.8 442.8,-214.8 442.8,-178.8 559.2,-178.8 559.2,-214.8"/>
<text text-anchor="middle" x="501" y="-192.6" font-family="Times,serif" font-size="14.00">TableComponent </text>
</g>
<!-- UniversalComponentsModule&#45;&gt;TableComponent  -->
<g id="edge9" class="edge">
<title>UniversalComponentsModule&#45;&gt;TableComponent </title>
<path fill="none" stroke="black" stroke-dasharray="5,2" d="M570.11,-149.91C570.11,-169.14 570.11,-196.8 570.11,-196.8 570.11,-196.8 569.03,-196.8 569.03,-196.8"/>
<polygon fill="black" stroke="black" points="569.31,-193.3 559.31,-196.8 569.31,-200.3 569.31,-193.3"/>
</g>
<!-- TableButtonService -->
<g id="node11" class="node">
<title>TableButtonService</title>
<ellipse fill="#fdb462" stroke="black" cx="112" cy="-66.8" rx="88.04" ry="18"/>
<text text-anchor="middle" x="112" y="-62.6" font-family="Times,serif" font-size="14.00">TableButtonService</text>
</g>
<!-- TableButtonService&#45;&gt;UniversalComponentsModule -->
<g id="edge10" class="edge">
<title>TableButtonService&#45;&gt;UniversalComponentsModule</title>
<path fill="none" stroke="black" d="M112,-85.08C112,-106.12 112,-137.8 112,-137.8 112,-137.8 552.58,-137.8 552.58,-137.8"/>
<polygon fill="black" stroke="black" points="552.58,-141.3 562.58,-137.8 552.58,-134.3 552.58,-141.3"/>
</g>
</g>
</svg>
