<?xml version="1.0" encoding="UTF-8" standalone="no"?>
<!DOCTYPE svg PUBLIC "-//W3C//DTD SVG 1.1//EN"
 "http://www.w3.org/Graphics/SVG/1.1/DTD/svg11.dtd">
<!-- Generated by graphviz version 5.0.0 (20220707.1540)
 -->
<!-- Title: dependencies Pages: 1 -->
<svg width="4337pt" height="247pt"
 viewBox="0.00 0.00 4337.00 246.80" xmlns="http://www.w3.org/2000/svg" xmlns:xlink="http://www.w3.org/1999/xlink">
<g id="graph0" class="graph" transform="scale(1 1) rotate(0) translate(4 242.8)">
<title>dependencies</title>
<polygon fill="white" stroke="transparent" points="-4,4 -4,-242.8 4333,-242.8 4333,4 -4,4"/>
<text text-anchor="middle" x="2164.5" y="-8.2" font-family="sans-serif" font-size="14.00">dependencies</text>
<g id="clust1" class="cluster">
<title>cluster_AppModule</title>
<polygon fill="none" stroke="black" stroke-dasharray="1,5" points="8,-32.8 8,-230.8 4321,-230.8 4321,-32.8 8,-32.8"/>
</g>
<g id="clust2" class="cluster">
<title>cluster_AppModule_declarations</title>
<polygon fill="none" stroke="black" points="386,-40.8 386,-92.8 4313,-92.8 4313,-40.8 386,-40.8"/>
</g>
<g id="clust30" class="cluster">
<title>cluster_AppModule_providers</title>
<polygon fill="none" stroke="black" points="168,-40.8 168,-92.8 378,-92.8 378,-40.8 168,-40.8"/>
</g>
<g id="clust27" class="cluster">
<title>cluster_AppModule_imports</title>
<polygon fill="none" stroke="black" points="16,-40.8 16,-92.8 160,-92.8 160,-40.8 16,-40.8"/>
</g>
<g id="clust29" class="cluster">
<title>cluster_AppModule_bootstrap</title>
<polygon fill="none" stroke="black" points="2147,-170.8 2147,-222.8 2271,-222.8 2271,-170.8 2147,-170.8"/>
</g>
<!-- AppComponent -->
<g id="node1" class="node">
<title>AppComponent</title>
<polygon fill="#ffffb3" stroke="black" points="4304.94,-84.8 4199.06,-84.8 4199.06,-48.8 4304.94,-48.8 4304.94,-84.8"/>
<text text-anchor="middle" x="4252" y="-62.6" font-family="Times,serif" font-size="14.00">AppComponent</text>
</g>
<!-- AppModule -->
<g id="node25" class="node">
<title>AppModule</title>
<polygon fill="#8dd3c7" stroke="black" points="2250.66,-149.8 2247.66,-153.8 2226.66,-153.8 2223.66,-149.8 2167.34,-149.8 2167.34,-113.8 2250.66,-113.8 2250.66,-149.8"/>
<text text-anchor="middle" x="2209" y="-127.6" font-family="Times,serif" font-size="14.00">AppModule</text>
</g>
<!-- AppComponent&#45;&gt;AppModule -->
<g id="edge1" class="edge">
<title>AppComponent&#45;&gt;AppModule</title>
<path fill="none" stroke="black" d="M4252,-85.18C4252,-109.08 4252,-147.8 4252,-147.8 4252,-147.8 2260.74,-147.8 2260.74,-147.8"/>
<polygon fill="black" stroke="black" points="2260.74,-144.3 2250.74,-147.8 2260.74,-151.3 2260.74,-144.3"/>
</g>
<!-- BreadcrumbComponent -->
<g id="node2" class="node">
<title>BreadcrumbComponent</title>
<polygon fill="#ffffb3" stroke="black" points="4181.03,-84.8 4030.97,-84.8 4030.97,-48.8 4181.03,-48.8 4181.03,-84.8"/>
<text text-anchor="middle" x="4106" y="-62.6" font-family="Times,serif" font-size="14.00">BreadcrumbComponent</text>
</g>
<!-- BreadcrumbComponent&#45;&gt;AppModule -->
<g id="edge2" class="edge">
<title>BreadcrumbComponent&#45;&gt;AppModule</title>
<path fill="none" stroke="black" d="M4106,-84.89C4106,-107.93 4106,-144.8 4106,-144.8 4106,-144.8 2260.83,-144.8 2260.83,-144.8"/>
<polygon fill="black" stroke="black" points="2260.83,-141.3 2250.83,-144.8 2260.83,-148.3 2260.83,-141.3"/>
</g>
<!-- ConfigComponent -->
<g id="node3" class="node">
<title>ConfigComponent</title>
<polygon fill="#ffffb3" stroke="black" points="4013.22,-84.8 3892.78,-84.8 3892.78,-48.8 4013.22,-48.8 4013.22,-84.8"/>
<text text-anchor="middle" x="3953" y="-62.6" font-family="Times,serif" font-size="14.00">ConfigComponent</text>
</g>
<!-- ConfigComponent&#45;&gt;AppModule -->
<g id="edge3" class="edge">
<title>ConfigComponent&#45;&gt;AppModule</title>
<path fill="none" stroke="black" d="M3953,-84.96C3953,-107.15 3953,-141.8 3953,-141.8 3953,-141.8 2260.82,-141.8 2260.82,-141.8"/>
<polygon fill="black" stroke="black" points="2260.82,-138.3 2250.82,-141.8 2260.82,-145.3 2260.82,-138.3"/>
</g>
<!-- DashboardPageComponent -->
<g id="node4" class="node">
<title>DashboardPageComponent</title>
<polygon fill="#ffffb3" stroke="black" points="3874.69,-84.8 3705.31,-84.8 3705.31,-48.8 3874.69,-48.8 3874.69,-84.8"/>
<text text-anchor="middle" x="3790" y="-62.6" font-family="Times,serif" font-size="14.00">DashboardPageComponent</text>
</g>
<!-- DashboardPageComponent&#45;&gt;AppModule -->
<g id="edge4" class="edge">
<title>DashboardPageComponent&#45;&gt;AppModule</title>
<path fill="none" stroke="black" d="M3790,-84.97C3790,-106.3 3790,-138.8 3790,-138.8 3790,-138.8 2260.88,-138.8 2260.88,-138.8"/>
<polygon fill="black" stroke="black" points="2260.88,-135.3 2250.88,-138.8 2260.88,-142.3 2260.88,-135.3"/>
</g>
<!-- DiagramOrdersComponent -->
<g id="node5" class="node">
<title>DiagramOrdersComponent</title>
<polygon fill="#ffffb3" stroke="black" points="3687.41,-84.8 3518.59,-84.8 3518.59,-48.8 3687.41,-48.8 3687.41,-84.8"/>
<text text-anchor="middle" x="3603" y="-62.6" font-family="Times,serif" font-size="14.00">DiagramOrdersComponent</text>
</g>
<!-- DiagramOrdersComponent&#45;&gt;AppModule -->
<g id="edge5" class="edge">
<title>DiagramOrdersComponent&#45;&gt;AppModule</title>
<path fill="none" stroke="black" d="M3603,-84.83C3603,-105.57 3603,-136.8 3603,-136.8 3603,-136.8 2260.72,-136.8 2260.72,-136.8"/>
<polygon fill="black" stroke="black" points="2260.72,-133.3 2250.72,-136.8 2260.72,-140.3 2260.72,-133.3"/>
</g>
<!-- DiagramPercentageComponent -->
<g id="node6" class="node">
<title>DiagramPercentageComponent</title>
<polygon fill="#ffffb3" stroke="black" points="3500.72,-84.8 3309.28,-84.8 3309.28,-48.8 3500.72,-48.8 3500.72,-84.8"/>
<text text-anchor="middle" x="3405" y="-62.6" font-family="Times,serif" font-size="14.00">DiagramPercentageComponent</text>
</g>
<!-- DiagramPercentageComponent&#45;&gt;AppModule -->
<g id="edge6" class="edge">
<title>DiagramPercentageComponent&#45;&gt;AppModule</title>
<path fill="none" stroke="black" d="M3405,-85.11C3405,-104.95 3405,-133.8 3405,-133.8 3405,-133.8 2260.86,-133.8 2260.86,-133.8"/>
<polygon fill="black" stroke="black" points="2260.87,-130.3 2250.86,-133.8 2260.86,-137.3 2260.87,-130.3"/>
</g>
<!-- ExportDataComponent -->
<g id="node7" class="node">
<title>ExportDataComponent</title>
<polygon fill="#ffffb3" stroke="black" points="3290.86,-84.8 3145.14,-84.8 3145.14,-48.8 3290.86,-48.8 3290.86,-84.8"/>
<text text-anchor="middle" x="3218" y="-62.6" font-family="Times,serif" font-size="14.00">ExportDataComponent</text>
</g>
<!-- ExportDataComponent&#45;&gt;AppModule -->
<g id="edge7" class="edge">
<title>ExportDataComponent&#45;&gt;AppModule</title>
<path fill="none" stroke="black" d="M3218,-84.97C3218,-103.89 3218,-130.8 3218,-130.8 3218,-130.8 2260.75,-130.8 2260.75,-130.8"/>
<polygon fill="black" stroke="black" points="2260.75,-127.3 2250.75,-130.8 2260.75,-134.3 2260.75,-127.3"/>
</g>
<!-- FooterComponent -->
<g id="node8" class="node">
<title>FooterComponent</title>
<polygon fill="#ffffb3" stroke="black" points="3126.88,-84.8 3009.12,-84.8 3009.12,-48.8 3126.88,-48.8 3126.88,-84.8"/>
<text text-anchor="middle" x="3068" y="-62.6" font-family="Times,serif" font-size="14.00">FooterComponent</text>
</g>
<!-- FooterComponent&#45;&gt;AppModule -->
<g id="edge8" class="edge">
<title>FooterComponent&#45;&gt;AppModule</title>
<path fill="none" stroke="black" d="M3068,-85.1C3068,-103.07 3068,-127.8 3068,-127.8 3068,-127.8 2260.72,-127.8 2260.72,-127.8"/>
<polygon fill="black" stroke="black" points="2260.72,-124.3 2250.72,-127.8 2260.72,-131.3 2260.72,-124.3"/>
</g>
<!-- InlineMenuComponent -->
<g id="node9" class="node">
<title>InlineMenuComponent</title>
<polygon fill="#ffffb3" stroke="black" points="2991.15,-84.8 2844.85,-84.8 2844.85,-48.8 2991.15,-48.8 2991.15,-84.8"/>
<text text-anchor="middle" x="2918" y="-62.6" font-family="Times,serif" font-size="14.00">InlineMenuComponent</text>
</g>
<!-- InlineMenuComponent&#45;&gt;AppModule -->
<g id="edge9" class="edge">
<title>InlineMenuComponent&#45;&gt;AppModule</title>
<path fill="none" stroke="black" d="M2918,-84.82C2918,-102.17 2918,-125.8 2918,-125.8 2918,-125.8 2260.7,-125.8 2260.7,-125.8"/>
<polygon fill="black" stroke="black" points="2260.7,-122.3 2250.7,-125.8 2260.7,-129.3 2260.7,-122.3"/>
</g>
<!-- LeftMenuComponent -->
<g id="node10" class="node">
<title>LeftMenuComponent</title>
<polygon fill="#ffffb3" stroke="black" points="2826.81,-84.8 2689.19,-84.8 2689.19,-48.8 2826.81,-48.8 2826.81,-84.8"/>
<text text-anchor="middle" x="2758" y="-62.6" font-family="Times,serif" font-size="14.00">LeftMenuComponent</text>
</g>
<!-- LeftMenuComponent&#45;&gt;AppModule -->
<g id="edge10" class="edge">
<title>LeftMenuComponent&#45;&gt;AppModule</title>
<path fill="none" stroke="black" d="M2758,-84.83C2758,-101.2 2758,-122.8 2758,-122.8 2758,-122.8 2260.71,-122.8 2260.71,-122.8"/>
<polygon fill="black" stroke="black" points="2260.71,-119.3 2250.71,-122.8 2260.71,-126.3 2260.71,-119.3"/>
</g>
<!-- MainSummaryComponent -->
<g id="node11" class="node">
<title>MainSummaryComponent</title>
<polygon fill="#ffffb3" stroke="black" points="2671.82,-84.8 2506.18,-84.8 2506.18,-48.8 2671.82,-48.8 2671.82,-84.8"/>
<text text-anchor="middle" x="2589" y="-62.6" font-family="Times,serif" font-size="14.00">MainSummaryComponent</text>
</g>
<!-- MainSummaryComponent&#45;&gt;AppModule -->
<g id="edge11" class="edge">
<title>MainSummaryComponent&#45;&gt;AppModule</title>
<path fill="none" stroke="black" d="M2589,-85.04C2589,-100.37 2589,-119.8 2589,-119.8 2589,-119.8 2260.75,-119.8 2260.75,-119.8"/>
<polygon fill="black" stroke="black" points="2260.75,-116.3 2250.75,-119.8 2260.75,-123.3 2260.75,-116.3"/>
</g>
<!-- MenuComponent -->
<g id="node12" class="node">
<title>MenuComponent</title>
<polygon fill="#ffffb3" stroke="black" points="2487.99,-84.8 2374.01,-84.8 2374.01,-48.8 2487.99,-48.8 2487.99,-84.8"/>
<text text-anchor="middle" x="2431" y="-62.6" font-family="Times,serif" font-size="14.00">MenuComponent</text>
</g>
<!-- MenuComponent&#45;&gt;AppModule -->
<g id="edge12" class="edge">
<title>MenuComponent&#45;&gt;AppModule</title>
<path fill="none" stroke="black" d="M2431,-84.85C2431,-99.17 2431,-116.8 2431,-116.8 2431,-116.8 2260.76,-116.8 2260.76,-116.8"/>
<polygon fill="black" stroke="black" points="2260.76,-113.3 2250.76,-116.8 2260.76,-120.3 2260.76,-113.3"/>
</g>
<!-- MenuitemComponent -->
<g id="node13" class="node">
<title>MenuitemComponent</title>
<polygon fill="#ffffb3" stroke="black" points="2356.38,-84.8 2217.62,-84.8 2217.62,-48.8 2356.38,-48.8 2356.38,-84.8"/>
<text text-anchor="middle" x="2287" y="-62.6" font-family="Times,serif" font-size="14.00">MenuitemComponent</text>
</g>
<!-- MenuitemComponent&#45;&gt;AppModule -->
<g id="edge13" class="edge">
<title>MenuitemComponent&#45;&gt;AppModule</title>
<path fill="none" stroke="black" d="M2234.2,-84.91C2234.2,-84.91 2234.2,-103.79 2234.2,-103.79"/>
<polygon fill="black" stroke="black" points="2230.7,-103.79 2234.2,-113.79 2237.7,-103.79 2230.7,-103.79"/>
</g>
<!-- NotfoundComponent -->
<g id="node14" class="node">
<title>NotfoundComponent</title>
<polygon fill="#ffffb3" stroke="black" points="2199.49,-84.8 2064.51,-84.8 2064.51,-48.8 2199.49,-48.8 2199.49,-84.8"/>
<text text-anchor="middle" x="2132" y="-62.6" font-family="Times,serif" font-size="14.00">NotfoundComponent</text>
</g>
<!-- NotfoundComponent&#45;&gt;AppModule -->
<g id="edge14" class="edge">
<title>NotfoundComponent&#45;&gt;AppModule</title>
<path fill="none" stroke="black" d="M2183.33,-84.91C2183.33,-84.91 2183.33,-103.79 2183.33,-103.79"/>
<polygon fill="black" stroke="black" points="2179.83,-103.79 2183.33,-113.79 2186.83,-103.79 2179.83,-103.79"/>
</g>
<!-- ProductsUnderMinimalStateComponent -->
<g id="node15" class="node">
<title>ProductsUnderMinimalStateComponent</title>
<polygon fill="#ffffb3" stroke="black" points="2046.53,-84.8 1805.47,-84.8 1805.47,-48.8 2046.53,-48.8 2046.53,-84.8"/>
<text text-anchor="middle" x="1926" y="-62.6" font-family="Times,serif" font-size="14.00">ProductsUnderMinimalStateComponent</text>
</g>
<!-- ProductsUnderMinimalStateComponent&#45;&gt;AppModule -->
<g id="edge15" class="edge">
<title>ProductsUnderMinimalStateComponent&#45;&gt;AppModule</title>
<path fill="none" stroke="black" d="M1926,-84.85C1926,-99.17 1926,-116.8 1926,-116.8 1926,-116.8 2157.24,-116.8 2157.24,-116.8"/>
<polygon fill="black" stroke="black" points="2157.24,-120.3 2167.24,-116.8 2157.24,-113.3 2157.24,-120.3"/>
</g>
<!-- RightmenuComponent -->
<g id="node16" class="node">
<title>RightmenuComponent</title>
<polygon fill="#ffffb3" stroke="black" points="1786.55,-84.8 1643.45,-84.8 1643.45,-48.8 1786.55,-48.8 1786.55,-84.8"/>
<text text-anchor="middle" x="1715" y="-62.6" font-family="Times,serif" font-size="14.00">RightmenuComponent</text>
</g>
<!-- RightmenuComponent&#45;&gt;AppModule -->
<g id="edge16" class="edge">
<title>RightmenuComponent&#45;&gt;AppModule</title>
<path fill="none" stroke="black" d="M1715,-85.04C1715,-100.37 1715,-119.8 1715,-119.8 1715,-119.8 2157.31,-119.8 2157.31,-119.8"/>
<polygon fill="black" stroke="black" points="2157.31,-123.3 2167.31,-119.8 2157.31,-116.3 2157.31,-123.3"/>
</g>
<!-- SearchPageComponent -->
<g id="node17" class="node">
<title>SearchPageComponent</title>
<polygon fill="#ffffb3" stroke="black" points="1625.14,-84.8 1478.86,-84.8 1478.86,-48.8 1625.14,-48.8 1625.14,-84.8"/>
<text text-anchor="middle" x="1552" y="-62.6" font-family="Times,serif" font-size="14.00">SearchPageComponent</text>
</g>
<!-- SearchPageComponent&#45;&gt;AppModule -->
<g id="edge17" class="edge">
<title>SearchPageComponent&#45;&gt;AppModule</title>
<path fill="none" stroke="black" d="M1552,-84.83C1552,-101.2 1552,-122.8 1552,-122.8 1552,-122.8 2157.15,-122.8 2157.15,-122.8"/>
<polygon fill="black" stroke="black" points="2157.15,-126.3 2167.15,-122.8 2157.15,-119.3 2157.15,-126.3"/>
</g>
<!-- SelectDepartmentComponent -->
<g id="node18" class="node">
<title>SelectDepartmentComponent</title>
<polygon fill="#ffffb3" stroke="black" points="1460.62,-84.8 1279.38,-84.8 1279.38,-48.8 1460.62,-48.8 1460.62,-84.8"/>
<text text-anchor="middle" x="1370" y="-62.6" font-family="Times,serif" font-size="14.00">SelectDepartmentComponent</text>
</g>
<!-- SelectDepartmentComponent&#45;&gt;AppModule -->
<g id="edge18" class="edge">
<title>SelectDepartmentComponent&#45;&gt;AppModule</title>
<path fill="none" stroke="black" d="M1370,-84.82C1370,-102.17 1370,-125.8 1370,-125.8 1370,-125.8 2157.11,-125.8 2157.11,-125.8"/>
<polygon fill="black" stroke="black" points="2157.11,-129.3 2167.11,-125.8 2157.11,-122.3 2157.11,-129.3"/>
</g>
<!-- Summary1Component -->
<g id="node19" class="node">
<title>Summary1Component</title>
<polygon fill="#ffffb3" stroke="black" points="1261.27,-84.8 1118.73,-84.8 1118.73,-48.8 1261.27,-48.8 1261.27,-84.8"/>
<text text-anchor="middle" x="1190" y="-62.6" font-family="Times,serif" font-size="14.00">Summary1Component</text>
</g>
<!-- Summary1Component&#45;&gt;AppModule -->
<g id="edge19" class="edge">
<title>Summary1Component&#45;&gt;AppModule</title>
<path fill="none" stroke="black" d="M1190,-85.1C1190,-103.07 1190,-127.8 1190,-127.8 1190,-127.8 2157.15,-127.8 2157.15,-127.8"/>
<polygon fill="black" stroke="black" points="2157.15,-131.3 2167.15,-127.8 2157.15,-124.3 2157.15,-131.3"/>
</g>
<!-- Summary2Component -->
<g id="node20" class="node">
<title>Summary2Component</title>
<polygon fill="#ffffb3" stroke="black" points="1100.27,-84.8 957.73,-84.8 957.73,-48.8 1100.27,-48.8 1100.27,-84.8"/>
<text text-anchor="middle" x="1029" y="-62.6" font-family="Times,serif" font-size="14.00">Summary2Component</text>
</g>
<!-- Summary2Component&#45;&gt;AppModule -->
<g id="edge20" class="edge">
<title>Summary2Component&#45;&gt;AppModule</title>
<path fill="none" stroke="black" d="M1029,-84.97C1029,-103.89 1029,-130.8 1029,-130.8 1029,-130.8 2157,-130.8 2157,-130.8"/>
<polygon fill="black" stroke="black" points="2157,-134.3 2167,-130.8 2157,-127.3 2157,-134.3"/>
</g>
<!-- TabsComponent -->
<g id="node21" class="node">
<title>TabsComponent</title>
<polygon fill="#ffffb3" stroke="black" points="939.05,-84.8 830.95,-84.8 830.95,-48.8 939.05,-48.8 939.05,-84.8"/>
<text text-anchor="middle" x="885" y="-62.6" font-family="Times,serif" font-size="14.00">TabsComponent</text>
</g>
<!-- TabsComponent&#45;&gt;AppModule -->
<g id="edge21" class="edge">
<title>TabsComponent&#45;&gt;AppModule</title>
<path fill="none" stroke="black" d="M885,-85.11C885,-104.95 885,-133.8 885,-133.8 885,-133.8 2157.19,-133.8 2157.19,-133.8"/>
<polygon fill="black" stroke="black" points="2157.19,-137.3 2167.19,-133.8 2157.19,-130.3 2157.19,-137.3"/>
</g>
<!-- TodayOrdersComponent -->
<g id="node22" class="node">
<title>TodayOrdersComponent</title>
<polygon fill="#ffffb3" stroke="black" points="812.69,-84.8 657.31,-84.8 657.31,-48.8 812.69,-48.8 812.69,-84.8"/>
<text text-anchor="middle" x="735" y="-62.6" font-family="Times,serif" font-size="14.00">TodayOrdersComponent</text>
</g>
<!-- TodayOrdersComponent&#45;&gt;AppModule -->
<g id="edge22" class="edge">
<title>TodayOrdersComponent&#45;&gt;AppModule</title>
<path fill="none" stroke="black" d="M735,-84.83C735,-105.57 735,-136.8 735,-136.8 735,-136.8 2157.26,-136.8 2157.26,-136.8"/>
<polygon fill="black" stroke="black" points="2157.26,-140.3 2167.26,-136.8 2157.26,-133.3 2157.26,-140.3"/>
</g>
<!-- TopbarComponent -->
<g id="node23" class="node">
<title>TopbarComponent</title>
<polygon fill="#ffffb3" stroke="black" points="639.76,-84.8 518.24,-84.8 518.24,-48.8 639.76,-48.8 639.76,-84.8"/>
<text text-anchor="middle" x="579" y="-62.6" font-family="Times,serif" font-size="14.00">TopbarComponent</text>
</g>
<!-- TopbarComponent&#45;&gt;AppModule -->
<g id="edge23" class="edge">
<title>TopbarComponent&#45;&gt;AppModule</title>
<path fill="none" stroke="black" d="M579,-84.97C579,-106.3 579,-138.8 579,-138.8 579,-138.8 2157.07,-138.8 2157.07,-138.8"/>
<polygon fill="black" stroke="black" points="2157.07,-142.3 2167.07,-138.8 2157.07,-135.3 2157.07,-142.3"/>
</g>
<!-- TreeComponent -->
<g id="node24" class="node">
<title>TreeComponent</title>
<polygon fill="#ffffb3" stroke="black" points="500.47,-84.8 393.53,-84.8 393.53,-48.8 500.47,-48.8 500.47,-84.8"/>
<text text-anchor="middle" x="447" y="-62.6" font-family="Times,serif" font-size="14.00">TreeComponent</text>
</g>
<!-- TreeComponent&#45;&gt;AppModule -->
<g id="edge24" class="edge">
<title>TreeComponent&#45;&gt;AppModule</title>
<path fill="none" stroke="black" d="M447,-84.96C447,-107.15 447,-141.8 447,-141.8 447,-141.8 2157.18,-141.8 2157.18,-141.8"/>
<polygon fill="black" stroke="black" points="2157.18,-145.3 2167.18,-141.8 2157.18,-138.3 2157.18,-145.3"/>
</g>
<!-- AppComponent  -->
<g id="node27" class="node">
<title>AppComponent </title>
<polygon fill="#80b1d3" stroke="black" points="2263.44,-214.8 2154.56,-214.8 2154.56,-178.8 2263.44,-178.8 2263.44,-214.8"/>
<text text-anchor="middle" x="2209" y="-192.6" font-family="Times,serif" font-size="14.00">AppComponent </text>
</g>
<!-- AppModule&#45;&gt;AppComponent  -->
<g id="edge26" class="edge">
<title>AppModule&#45;&gt;AppComponent </title>
<path fill="none" stroke="black" stroke-dasharray="1,5" d="M2209,-149.91C2209,-149.91 2209,-168.79 2209,-168.79"/>
<polygon fill="black" stroke="black" points="2205.5,-168.79 2209,-178.79 2212.5,-168.79 2205.5,-168.79"/>
</g>
<!-- AppRoutingModule -->
<g id="node26" class="node">
<title>AppRoutingModule</title>
<polygon fill="#8dd3c7" stroke="black" points="152.28,-84.8 149.28,-88.8 128.28,-88.8 125.28,-84.8 23.72,-84.8 23.72,-48.8 152.28,-48.8 152.28,-84.8"/>
<text text-anchor="middle" x="88" y="-62.6" font-family="Times,serif" font-size="14.00">AppRoutingModule</text>
</g>
<!-- AppRoutingModule&#45;&gt;AppModule -->
<g id="edge25" class="edge">
<title>AppRoutingModule&#45;&gt;AppModule</title>
<path fill="none" stroke="black" d="M88,-85.18C88,-109.08 88,-147.8 88,-147.8 88,-147.8 2157.11,-147.8 2157.11,-147.8"/>
<polygon fill="black" stroke="black" points="2157.11,-151.3 2167.11,-147.8 2157.11,-144.3 2157.11,-151.3"/>
</g>
<!-- AuthconfigInterceptor -->
<g id="node28" class="node">
<title>AuthconfigInterceptor</title>
<ellipse fill="#fdb462" stroke="black" cx="273" cy="-66.8" rx="97.26" ry="18"/>
<text text-anchor="middle" x="273" y="-62.6" font-family="Times,serif" font-size="14.00">AuthconfigInterceptor</text>
</g>
<!-- AuthconfigInterceptor&#45;&gt;AppModule -->
<g id="edge27" class="edge">
<title>AuthconfigInterceptor&#45;&gt;AppModule</title>
<path fill="none" stroke="black" d="M273,-84.89C273,-107.93 273,-144.8 273,-144.8 273,-144.8 2157.22,-144.8 2157.22,-144.8"/>
<polygon fill="black" stroke="black" points="2157.22,-148.3 2167.22,-144.8 2157.22,-141.3 2157.22,-148.3"/>
</g>
</g>
</svg>
